<svg xmlns="http://www.w3.org/2000/svg" width="406.167" height="287.111" viewBox="0 0 406.167 287.111">
  <g id="Group_870" data-name="Group 870" transform="translate(-346.876 -4916.813)">
    <path id="Path_1617" data-name="Path 1617" d="M662.873,5135.581l2.422,4.907,5.415.787-3.918,3.819.925,5.393-4.843-2.546-4.843,2.546.925-5.393-3.918-3.819,5.415-.787Z" fill="#fdbd35"/>
    <g id="Group_796" data-name="Group 796">
      <circle id="Ellipse_47" data-name="Ellipse 47" cx="21.688" cy="21.688" r="21.688" transform="translate(446.547 4916.813)" fill="#6c7afc"/>
      <path id="Path_1618" data-name="Path 1618" d="M486.708,4945.773l5.677,9.418a1.774,1.774,0,0,1-2.1,2.592l-10.547-3.676" fill="#6c7afc"/>
    </g>
    <g id="Group_869" data-name="Group 869">
      <g id="Group_800" data-name="Group 800">
        <path id="Path_1619" data-name="Path 1619" d="M609.61,5020.74v30.6a9.981,9.981,0,0,0,10.024,9.81H729.358a10.025,10.025,0,0,0,10.025-10.024V5025.27l13.66-14.352-133.377-.417A10.072,10.072,0,0,0,609.61,5020.74Z" fill="#dbdbdb"/>
        <g id="Group_797" data-name="Group 797">
          <path id="Path_1620" data-name="Path 1620" d="M722.021,5029.034l-97.2-.448a1.186,1.186,0,0,1-1.18-1.19l0-.689a1.186,1.186,0,0,1,1.191-1.182l97.2.449a1.186,1.186,0,0,1,1.18,1.19l0,.689A1.185,1.185,0,0,1,722.021,5029.034Z" fill="#fff"/>
        </g>
        <g id="Group_798" data-name="Group 798">
          <path id="Path_1621" data-name="Path 1621" d="M722.021,5039.1l-97.2-.448a1.186,1.186,0,0,1-1.18-1.19l0-.689a1.186,1.186,0,0,1,1.191-1.182l97.2.449a1.186,1.186,0,0,1,1.18,1.19l0,.689A1.185,1.185,0,0,1,722.021,5039.1Z" fill="#fff"/>
        </g>
        <g id="Group_799" data-name="Group 799">
          <rect id="Rectangle_181" data-name="Rectangle 181" width="3.06" height="39.396" rx="1.186" transform="matrix(0.005, -1, 1, 0.005, 683.812, 5048.728)" fill="#fff"/>
        </g>
      </g>
      <g id="Group_808" data-name="Group 808">
        <g id="Group_803" data-name="Group 803">
          <g id="Group_802" data-name="Group 802">
            <g id="Group_801" data-name="Group 801">
              <path id="Path_1622" data-name="Path 1622" d="M422.609,5176.712c15.343-10.719,18.824-30.616,18.217-48.5-.1-2.985.227-6.133-1.193-8.753s-4.734-4.409-7.407-3.151c-2.217,1.044-3.183,3.623-4.424,5.756a17.459,17.459,0,0,1-7,6.687c-1.9.987-4.253,1.59-6.13.555-2.575-1.421-2.879-4.978-2.86-7.948q.051-8.3.1-16.6a27.65,27.65,0,0,0-.9-8.819c-.923-2.818-2.964-5.436-5.788-6.227s-6.318.837-6.915,3.744a27.406,27.406,0,0,0-.084,3.7c-.082,1.233-.657,2.6-1.827,2.94-1.186.348-2.374-.494-3.261-1.363-3.065-3-5.145-6.86-7.088-10.7s-3.83-7.773-6.611-11.043-6.627-5.861-10.88-6.1-8.783,2.384-9.858,6.559,1.365,8.433,4.023,11.821a66.232,66.232,0,0,0,13.8,13.154,5.462,5.462,0,0,1,2.309,2.482c.645,1.98-1.231,3.946-3.185,4.6-2.214.737-4.615.507-6.93.78s-4.824,1.293-5.7,3.482c-1.216,3.034,1.322,6.216,3.82,8.3a56.78,56.78,0,0,0,16.8,9.7c2.184.8,4.482,1.5,6.244,3.035s2.824,4.2,1.76,6.295-3.8,2.763-6.084,2.338-4.335-1.666-6.516-2.489c-4.08-1.54-9.35-1.259-11.964,2.268a9.4,9.4,0,0,0-1,8.309,21.667,21.667,0,0,0,4.5,7.338,57.1,57.1,0,0,0,24.378,17.133c9.465,3.282,18.236,4.17,27.643.73" fill="#50bc17"/>
            </g>
          </g>
        </g>
        <g id="Group_807" data-name="Group 807">
          <g id="Group_806" data-name="Group 806">
            <g id="Group_805" data-name="Group 805">
              <g id="Group_804" data-name="Group 804">
                <path id="Path_1623" data-name="Path 1623" d="M417.523,5164.8a1.946,1.946,0,0,0,.262-.466c.177-.373.392-.829.653-1.381.561-1.2,1.329-2.962,2.248-5.149,1.842-4.374,4.2-10.495,6.7-17.284s4.8-12.927,6.55-17.332c.856-2.142,1.561-3.9,2.085-5.212.224-.569.409-1.037.56-1.422a2,2,0,0,0,.161-.511,1.959,1.959,0,0,0-.262.466l-.653,1.38c-.561,1.2-1.329,2.962-2.248,5.15-1.842,4.373-4.2,10.494-6.7,17.286s-4.8,12.924-6.549,17.33c-.857,2.141-1.561,3.9-2.085,5.211-.224.569-.408,1.038-.56,1.423A2,2,0,0,0,417.523,5164.8Z" fill="#e1e1e1"/>
              </g>
            </g>
          </g>
        </g>
      </g>
      <g id="Group_812" data-name="Group 812">
        <path id="Path_1624" data-name="Path 1624" d="M458.012,4989.082v23.71a7.767,7.767,0,0,1-7.767,7.767H365.228a7.768,7.768,0,0,1-7.768-7.767v-20.034l-10.584-11.12,103.345-.323A7.766,7.766,0,0,1,458.012,4989.082Z" fill="#dbdbdb"/>
        <g id="Group_809" data-name="Group 809">
          <path id="Path_1625" data-name="Path 1625" d="M371.18,4995.674l74.776-.346a1.185,1.185,0,0,0,1.18-1.189h0a1.185,1.185,0,0,0-1.191-1.181l-74.776.346a1.185,1.185,0,0,0-1.18,1.189h0A1.185,1.185,0,0,0,371.18,4995.674Z" fill="#fff"/>
        </g>
        <g id="Group_810" data-name="Group 810">
          <path id="Path_1626" data-name="Path 1626" d="M371.18,5003.474l74.776-.345a1.185,1.185,0,0,0,1.18-1.19h0a1.186,1.186,0,0,0-1.191-1.181l-74.776.345a1.186,1.186,0,0,0-1.18,1.19h0A1.184,1.184,0,0,0,371.18,5003.474Z" fill="#fff"/>
        </g>
        <g id="Group_811" data-name="Group 811">
          <rect id="Rectangle_182" data-name="Rectangle 182" width="30.525" height="2.371" rx="1.186" transform="matrix(1, -0.005, 0.005, 1, 369.982, 5008.713)" fill="#fff"/>
        </g>
      </g>
      <g id="Group_847" data-name="Group 847">
        <g id="Group_818" data-name="Group 818">
          <g id="Group_817" data-name="Group 817">
            <g id="Group_813" data-name="Group 813">
              <path id="Rectangle_183" data-name="Rectangle 183" d="M11.55,0h156A11.549,11.549,0,0,1,179.1,11.549V245.479a11.549,11.549,0,0,1-11.549,11.549h-156A11.549,11.549,0,0,1,0,245.479V11.55A11.55,11.55,0,0,1,11.55,0Z" transform="translate(416.352 5203.925) rotate(-90)" fill="#fdbd35"/>
            </g>
            <g id="Group_814" data-name="Group 814">
              <rect id="Rectangle_184" data-name="Rectangle 184" width="167.808" height="214.65" transform="translate(433.937 5198.277) rotate(-90)" fill="#fff"/>
            </g>
            <g id="Group_815" data-name="Group 815">
              <circle id="Ellipse_48" data-name="Ellipse 48" cx="6.872" cy="6.872" r="6.872" transform="matrix(0.229, -0.973, 0.973, 0.229, 652.202, 5119.491)" fill="#fff"/>
            </g>
            <g id="Group_816" data-name="Group 816">
              <rect id="Rectangle_185" data-name="Rectangle 185" width="53.943" height="2.839" rx="1.215" transform="translate(423.754 5141.345) rotate(-90)" fill="#fff"/>
            </g>
          </g>
        </g>
        <g id="Group_824" data-name="Group 824">
          <circle id="Ellipse_49" data-name="Ellipse 49" cx="17.341" cy="17.341" r="17.341" transform="translate(456.319 5124.367) rotate(-56.646)" fill="#ff4f5b"/>
          <circle id="Ellipse_50" data-name="Ellipse 50" cx="17.341" cy="17.341" r="17.341" transform="translate(456.319 5124.367) rotate(-56.646)" fill="#6c7afc"/>
          <g id="Group_819" data-name="Group 819">
            <path id="Path_1627" data-name="Path 1627" d="M474.355,5115.047c.657-.054,1.254.671,1.332,1.62s-.391,1.761-1.048,1.815-1.254-.671-1.332-1.619S473.7,5115.1,474.355,5115.047Z" fill="#1a2e35"/>
          </g>
          <g id="Group_820" data-name="Group 820">
            <path id="Path_1628" data-name="Path 1628" d="M485.381,5114.82c-.659-.027-1.225.722-1.264,1.673s.463,1.744,1.122,1.771,1.225-.722,1.264-1.673S486.039,5114.847,485.381,5114.82Z" fill="#1a2e35"/>
          </g>
          <g id="Group_821" data-name="Group 821">
            <path id="Path_1629" data-name="Path 1629" d="M487.272,5122.851c0,.2-3.233.37-7.22.37s-7.219-.166-7.219-.37,3.231-.37,7.219-.37S487.272,5122.647,487.272,5122.851Z" fill="#1a2e35"/>
          </g>
          <g id="Group_822" data-name="Group 822">
            <path id="Path_1630" data-name="Path 1630" d="M475.681,5113.055c-.042.206-.865.2-1.829.356s-1.748.4-1.852.219c-.106-.167.62-.778,1.737-.95S475.731,5112.864,475.681,5113.055Z" fill="#1a2e35"/>
          </g>
          <g id="Group_823" data-name="Group 823">
            <path id="Path_1631" data-name="Path 1631" d="M488.51,5113.9c-.131.166-.88-.226-1.843-.514s-1.8-.4-1.814-.608.919-.444,2.031-.1S488.642,5113.748,488.51,5113.9Z" fill="#1a2e35"/>
          </g>
        </g>
        <g id="Group_830" data-name="Group 830">
          <circle id="Ellipse_51" data-name="Ellipse 51" cx="17.975" cy="17.975" r="17.975" transform="matrix(0.157, -0.988, 0.988, 0.157, 585.298, 5132.902)" fill="#ff4f5b"/>
          <circle id="Ellipse_52" data-name="Ellipse 52" cx="17.975" cy="17.975" r="17.975" transform="matrix(0.157, -0.988, 0.988, 0.157, 585.298, 5132.902)" fill="#6c7afc"/>
          <g id="Group_825" data-name="Group 825">
            <path id="Path_1632" data-name="Path 1632" d="M599.675,5113.449c.681-.056,1.3.695,1.38,1.679s-.4,1.825-1.086,1.882-1.3-.7-1.381-1.679S598.994,5113.5,599.675,5113.449Z" fill="#1a2e35"/>
          </g>
          <g id="Group_826" data-name="Group 826">
            <path id="Path_1633" data-name="Path 1633" d="M611.1,5113.214c-.683-.028-1.269.748-1.31,1.734s.48,1.807,1.163,1.835,1.27-.748,1.31-1.734S611.786,5113.241,611.1,5113.214Z" fill="#1a2e35"/>
          </g>
          <g id="Group_827" data-name="Group 827">
            <path id="Path_1634" data-name="Path 1634" d="M613.063,5121.538a13.046,13.046,0,0,1-2.1-1.092,11.658,11.658,0,0,0-5.352-1.322,13.313,13.313,0,0,0-5.365,1.393,11.607,11.607,0,0,1-2.144,1.021,5.887,5.887,0,0,1,1.9-1.483,11.668,11.668,0,0,1,5.6-1.67,10.5,10.5,0,0,1,5.619,1.605A5.586,5.586,0,0,1,613.063,5121.538Z" fill="#1a2e35"/>
          </g>
          <g id="Group_828" data-name="Group 828">
            <path id="Path_1635" data-name="Path 1635" d="M601.049,5111.384c.061.077-.057.3-.355.563a2.985,2.985,0,0,1-1.406.659,2.7,2.7,0,0,1-1.559-.174c-.367-.17-.536-.364-.495-.452.095-.2.939.086,1.925-.1S600.913,5111.212,601.049,5111.384Z" fill="#1a2e35"/>
          </g>
          <g id="Group_829" data-name="Group 829">
            <path id="Path_1636" data-name="Path 1636" d="M614.346,5112.255c.03.091-.167.267-.564.393a2.662,2.662,0,0,1-1.615-.059,3.149,3.149,0,0,1-1.322-.883c-.264-.305-.359-.545-.289-.614.156-.162.879.457,1.852.8S614.277,5112.048,614.346,5112.255Z" fill="#1a2e35"/>
          </g>
        </g>
        <g id="Group_836" data-name="Group 836">
          <g id="Group_831" data-name="Group 831">
            <path id="Path_1637" data-name="Path 1637" d="M571.431,5167.87l4.164-2.064,4.061,2.26-.676-4.6,3.4-3.164-4.582-.778-1.957-4.215-2.156,4.117-4.614.559,3.25,3.323Z" fill="#fdbd35"/>
          </g>
          <g id="Group_832" data-name="Group 832">
            <path id="Path_1638" data-name="Path 1638" d="M554.444,5167.87l4.164-2.064,4.061,2.26-.676-4.6,3.4-3.164-4.582-.778-1.957-4.215-2.156,4.117-4.614.559,3.25,3.323Z" fill="#fdbd35"/>
          </g>
          <g id="Group_833" data-name="Group 833">
            <path id="Path_1639" data-name="Path 1639" d="M537.457,5167.87l4.164-2.064,4.061,2.26-.676-4.6,3.4-3.164-4.582-.778-1.957-4.215-2.156,4.117-4.614.559,3.25,3.323Z" fill="#fdbd35"/>
          </g>
          <g id="Group_834" data-name="Group 834">
            <path id="Path_1640" data-name="Path 1640" d="M520.469,5167.87l4.164-2.064,4.061,2.26-.676-4.6,3.4-3.164-4.582-.778-1.957-4.215-2.156,4.117-4.614.559,3.25,3.323Z" fill="#fdbd35"/>
          </g>
          <g id="Group_835" data-name="Group 835">
            <path id="Path_1641" data-name="Path 1641" d="M503.482,5167.87l4.164-2.064,4.061,2.26-.676-4.6,3.4-3.164-4.582-.778-1.957-4.215-2.156,4.117-4.614.559,3.25,3.323Z" fill="#fdbd35"/>
          </g>
        </g>
        <g id="Group_846" data-name="Group 846">
          <g id="Group_845" data-name="Group 845">
            <g id="Group_842" data-name="Group 842">
              <circle id="Ellipse_53" data-name="Ellipse 53" cx="23.678" cy="23.678" r="23.678" transform="translate(514.709 5129.116) rotate(-72.144)" fill="#fdbd35"/>
              <g id="Group_837" data-name="Group 837">
                <path id="Path_1642" data-name="Path 1642" d="M536.337,5107.872c.9-.074,1.712.916,1.819,2.212s-.534,2.4-1.432,2.479-1.712-.917-1.818-2.211S535.44,5107.946,536.337,5107.872Z" fill="#1a2e35"/>
              </g>
              <g id="Group_838" data-name="Group 838">
                <path id="Path_1643" data-name="Path 1643" d="M551.391,5107.562c-.9-.037-1.671.986-1.725,2.284s.633,2.381,1.533,2.418,1.672-.986,1.725-2.284S552.291,5107.6,551.391,5107.562Z" fill="#1a2e35"/>
              </g>
              <g id="Group_839" data-name="Group 839">
                <path id="Path_1644" data-name="Path 1644" d="M553.973,5115.333c.036.036-.155.28-.537.695a13.528,13.528,0,0,1-1.775,1.6,12.643,12.643,0,0,1-3.132,1.716,11.08,11.08,0,0,1-4.34.68,12.811,12.811,0,0,1-4.27-.984,18.371,18.371,0,0,1-3.145-1.648,10.225,10.225,0,0,1-2.516-2.057,22.781,22.781,0,0,1,2.788,1.61,22.073,22.073,0,0,0,3.118,1.459,13.2,13.2,0,0,0,4.06.881,11.172,11.172,0,0,0,4.077-.584,13.962,13.962,0,0,0,3.061-1.5c.807-.554,1.457-1.022,1.879-1.381C553.677,5115.472,553.937,5115.3,553.973,5115.333Z" fill="#1a2e35"/>
              </g>
              <g id="Group_840" data-name="Group 840">
                <path id="Path_1645" data-name="Path 1645" d="M537.407,5102.545c-.041.209-1.174.134-2.519.353-1.348.2-2.4.619-2.506.433-.107-.164.893-.934,2.392-1.164S537.459,5102.357,537.407,5102.545Z" fill="#1a2e35"/>
              </g>
              <g id="Group_841" data-name="Group 841">
                <path id="Path_1646" data-name="Path 1646" d="M556.47,5103.652c-.131.169-1.134-.43-2.476-.832-1.338-.42-2.5-.488-2.517-.7-.029-.193,1.243-.469,2.734-.006S556.6,5103.508,556.47,5103.652Z" fill="#1a2e35"/>
              </g>
            </g>
            <g id="Group_843" data-name="Group 843">
              <path id="Path_1647" data-name="Path 1647" d="M534.644,5113.63c.093-.016.243.228.267.676a2.787,2.787,0,0,1-1.89,2.662c-.43.125-.711.064-.726-.029-.034-.206.875-.51,1.5-1.425C534.451,5114.624,534.439,5113.665,534.644,5113.63Z" fill="#1a2e35"/>
            </g>
            <g id="Group_844" data-name="Group 844">
              <path id="Path_1648" data-name="Path 1648" d="M555.975,5115.807c.017.093-.177.236-.547.268a2.145,2.145,0,0,1-2.143-1.59c-.076-.363,0-.591.1-.6.207-.017.441.683,1.136,1.176C555.192,5115.582,555.931,5115.6,555.975,5115.807Z" fill="#1a2e35"/>
            </g>
          </g>
        </g>
        <rect id="Rectangle_186" data-name="Rectangle 186" width="214.65" height="10.709" transform="translate(433.937 5030.47)" fill="#e1e1e1"/>
        <path id="Path_1649" data-name="Path 1649" d="M440.863,5035.528a1.45,1.45,0,1,1-1.45-1.45A1.451,1.451,0,0,1,440.863,5035.528Z" fill="#fff"/>
        <path id="Path_1650" data-name="Path 1650" d="M445.681,5035.528a1.45,1.45,0,1,1-1.45-1.45A1.451,1.451,0,0,1,445.681,5035.528Z" fill="#fff"/>
        <path id="Path_1651" data-name="Path 1651" d="M450.5,5035.528a1.45,1.45,0,1,1-1.45-1.45A1.451,1.451,0,0,1,450.5,5035.528Z" fill="#fff"/>
      </g>
      <g id="Group_864" data-name="Group 864">
        <g id="Group_857" data-name="Group 857">
          <g id="Group_856" data-name="Group 856">
            <g id="Group_848" data-name="Group 848">
              <path id="Path_1652" data-name="Path 1652" d="M515.758,5025.954s-1.467-3.322-1.741-4.054c-.746-1.993-5.548-15.336-4.4-17.356,5.326-9.343,9.451-15.985,19.954-15.985l18.545-.124s17.576-3.579,29.959,36.387Z" fill="#6c7afc"/>
              <path id="Path_1653" data-name="Path 1653" d="M476.632,5029.3l24.283-5.234,28.551-15.018.108-20.49c-4.284-1.182-12.48,1.79-27.238,9.308l-21.923,11.317a12.979,12.979,0,0,0-3.781,20.117Z" fill="#6c7afc"/>
            </g>
            <g id="Group_855" data-name="Group 855">
              <g id="Group_852" data-name="Group 852">
                <g id="Group_849" data-name="Group 849">
                  <path id="Path_1654" data-name="Path 1654" d="M531.287,5068.964c-.351-1.153-.113-1.893,1.567-1.329,3.706,1.243,7.015.838,7.824.119s.066-2.095-1.138-1.978a14.516,14.516,0,0,1-3.9-.54,9.539,9.539,0,0,1-2.911-1.229c-.772-.495-1.44-.955-2.032-1.379,0,0-3.416-2.468-4.487-4.454l-11.72,5.027,1.888,5.87a6.2,6.2,0,0,0,3.964,4.547c3.35,1.092,8.678.682,8.678.682.976-.641,4.748,4.814,5.888,6.74,1.126,1.9,2.5,2.164,2.944.987.3-.8-3.049-6.778-4.221-8.657a22.922,22.922,0,0,1-2.342-4.406" fill="#f7c889"/>
                </g>
                <g id="Group_850" data-name="Group 850">
                  <path id="Path_1655" data-name="Path 1655" d="M523.347,5074.315c-.009.042-.289.03-.689-.166a3.033,3.033,0,0,1-1.6-2.868c.042-.444.178-.688.219-.674a3.878,3.878,0,0,0,2.074,3.708Z" fill="#ddab6f"/>
                </g>
                <g id="Group_851" data-name="Group 851">
                  <path id="Path_1656" data-name="Path 1656" d="M527.055,5074.457c-.013.042-.279.016-.654-.185a3.012,3.012,0,0,1-1.5-2.775c.037-.424.161-.661.2-.649a4.015,4.015,0,0,0,1.954,3.609Z" fill="#ddab6f"/>
                </g>
              </g>
              <g id="Group_854" data-name="Group 854">
                <g id="Group_853" data-name="Group 853">
                  <path id="Path_1657" data-name="Path 1657" d="M475.942,5028.506s37.2,42.759,37.16,42.053,16.677-13.208,16.677-13.208L493.3,5013.9Z" fill="#6c7afc"/>
                </g>
              </g>
            </g>
          </g>
        </g>
        <g id="Group_863" data-name="Group 863">
          <path id="Path_1658" data-name="Path 1658" d="M554.531,4975.1a6.962,6.962,0,0,0,8.211-10.529c3.976-1.006,6.455-5.592,5.65-9.613s-4.4-7.16-8.405-8.028a8.949,8.949,0,0,0-4.649.118,5.691,5.691,0,0,0-3.467,2.976" fill="#494846"/>
          <path id="Path_1659" data-name="Path 1659" d="M556.98,4955.176a6.821,6.821,0,0,0,3.211-12.608,8.476,8.476,0,0,0-12.65-9.92,11.247,11.247,0,0,0-20.79,3.331,10.869,10.869,0,0,0-13.947,14.748,8.419,8.419,0,0,0,1.426,16.778,7.429,7.429,0,0,0,11.258,8.339,8.126,8.126,0,0,0,14.61-1.678" fill="#494846"/>
          <g id="Group_861" data-name="Group 861">
            <g id="Group_860" data-name="Group 860">
              <g id="Group_858" data-name="Group 858">
                <path id="Path_1660" data-name="Path 1660" d="M548.629,4987.73c.145-3.379.327-6.437.327-6.437s7.552-.953,7.878-8.662-.441-25.46-.441-25.46l-13.9-6.675-14.956,12.049,2.345,35.4a9.389,9.389,0,0,0,9.8,8.758h0A9.389,9.389,0,0,0,548.629,4987.73Z" fill="#f7c889"/>
              </g>
              <g id="Group_859" data-name="Group 859">
                <path id="Path_1661" data-name="Path 1661" d="M548.956,4981.293a17.951,17.951,0,0,1-7.472-1.811.628.628,0,0,0-.706,1.019,10.254,10.254,0,0,0,8.047,2.684Z" fill="#ddab6f"/>
              </g>
            </g>
          </g>
          <path id="Path_1662" data-name="Path 1662" d="M538.228,4940.928a10.174,10.174,0,0,0,.139,11.781,5.916,5.916,0,0,0,4.668,2.607c1.852-.067,3.644-1.823,3.251-3.633a3.832,3.832,0,1,0,7.34.131,6.92,6.92,0,0,0,.864,2.365,2.346,2.346,0,0,0,2.129,1.12c1.162-.154,1.837-1.4,2.1-2.543a10.452,10.452,0,0,0-2.969-9.61,12.663,12.663,0,0,0-9.631-3.378,16.13,16.13,0,0,0-9.46,4.138" fill="#494846"/>
          <path id="Path_1663" data-name="Path 1663" d="M539.207,4943.646a17.989,17.989,0,0,1,1.552,6.916,9.286,9.286,0,0,1-2.5,6.493,6.31,6.31,0,0,1-6.557,1.573,7.3,7.3,0,0,1-.955,6.154,4.676,4.676,0,0,1-5.716,1.5c-1.7-.933-2.439-3-2.673-4.926a15.772,15.772,0,0,1,17.156-17.6" fill="#494846"/>
          <g id="Group_862" data-name="Group 862">
            <path id="Path_1664" data-name="Path 1664" d="M542.177,4956.607" fill="none" stroke="#44555b" stroke-miterlimit="10" stroke-width="1"/>
          </g>
        </g>
      </g>
      <g id="Group_868" data-name="Group 868">
        <g id="Group_867" data-name="Group 867">
          <g id="Group_865" data-name="Group 865">
            <path id="Path_1665" data-name="Path 1665" d="M473.171,4934.468l-.862.01a.7.7,0,0,1-.572-.286l-3.018-4.107a5.389,5.389,0,0,1-1.047-3.133l-.014-1.223a.694.694,0,0,0-.985-.632c-.826.421-1.839,1.558-1.59,4.624.406,5.017.014,3.743.014,3.743s-6.3.1-6.822.649c-.377.4-.478,6.667-.505,10.064a3.677,3.677,0,0,0,2.648,3.675,2.774,2.774,0,0,0,.679.084c1.5-.018,8.863-1.264,9.542-1.38a.7.7,0,0,1,.106-.009l2.563-.029a.7.7,0,0,0,.692-.708l-.121-10.65A.7.7,0,0,0,473.171,4934.468Z" fill="#fff"/>
          </g>
          <g id="Group_866" data-name="Group 866">
            <path id="Path_1666" data-name="Path 1666" d="M479.2,4935.334l-.753,9.6a1.719,1.719,0,0,1-1.694,1.585h0a1.719,1.719,0,0,1-1.738-1.7l-.109-9.536a1.719,1.719,0,0,1,1.6-1.734l.862-.061A1.719,1.719,0,0,1,479.2,4935.334Z" fill="#fff"/>
          </g>
        </g>
      </g>
    </g>
    <circle id="Ellipse_54" data-name="Ellipse 54" cx="28.444" cy="28.444" r="28.444" transform="translate(515.746 5085.359)" fill="none" stroke="#fdbd35" stroke-miterlimit="10" stroke-width="1"/>
  </g>
</svg>
