<svg xmlns="http://www.w3.org/2000/svg" width="85.905" height="85.905" viewBox="0 0 85.905 85.905">
  <g id="Group_1752" data-name="Group 1752" transform="translate(-874.701 -4819.174)">
    <rect id="Rectangle_481" data-name="Rectangle 481" width="85.905" height="85.905" rx="17.249" transform="translate(874.701 4819.174)" fill="#e2e2e2"/>
    <g id="Group_1751" data-name="Group 1751">
      <path id="Path_3441" data-name="Path 3441" d="M937.953,4882.149c.069,1.756-.191,2.148-1.818,2.766a50.944,50.944,0,0,1-8.671,2.283,61.622,61.622,0,0,1-7.383.975,37.19,37.19,0,0,1-5.231-.039,70.1,70.1,0,0,1-11.2-1.847,36.55,36.55,0,0,1-4.907-1.549,1.983,1.983,0,0,1-1.4-2.131c.023-.425,0-.853.03-1.278a61.8,61.8,0,0,1,.944-7.222,26.676,26.676,0,0,1,1.2-4.575,6.932,6.932,0,0,1,4.606-4.376,28.739,28.739,0,0,0,4.61-1.777c.173-.09.261-.043.383.085a11.02,11.02,0,0,0,6.621,3.478,11.619,11.619,0,0,0,10.431-3.41c.106-.108.17-.292.4-.173a33.112,33.112,0,0,0,4.956,1.91,7,7,0,0,1,4.461,4.683,33.4,33.4,0,0,1,1.239,5.285,57.209,57.209,0,0,1,.73,5.964C937.973,4881.516,937.953,4881.833,937.953,4882.149Z" fill="#fff"/>
      <path id="Path_3442" data-name="Path 3442" d="M928.744,4848.687a23.281,23.281,0,0,1-2.907,11.038,9.13,9.13,0,0,1-5.838,4.517,9.268,9.268,0,0,1-10.392-4.332,20.131,20.131,0,0,1-2.58-7.169,21.5,21.5,0,0,1-.414-4.547,13.121,13.121,0,0,1,1.012-4.893,9.04,9.04,0,0,1,5.859-5.241,13.962,13.962,0,0,1,8.088-.085,9.316,9.316,0,0,1,6.818,7.436A14.8,14.8,0,0,1,928.744,4848.687Z" fill="#fff"/>
    </g>
  </g>
</svg>
